<svg width="141" height="144" viewBox="0 0 141 144" fill="none" xmlns="http://www.w3.org/2000/svg">
<path d="M103.773 98.7256C100.593 98.2956 97.2626 98.9956 94.8726 95.9956C94.4726 95.4956 93.4326 95.5956 92.9626 96.3056C92.6926 96.7156 92.4826 97.3956 92.6426 97.8056C93.0326 98.8056 93.6826 99.7056 94.1726 100.666C97.1226 106.506 98.0326 112.686 97.4426 119.176C97.1026 122.826 95.9526 125.526 91.7126 125.706C90.8326 125.746 89.9626 126.176 89.1226 126.506C88.2326 126.856 87.4726 127.506 87.6126 128.506C87.7926 129.836 88.9326 130.166 90.0726 130.116C91.1526 130.066 92.2226 129.826 93.2826 129.606C96.2726 128.986 99.0426 127.776 101.733 126.256C100.573 129.616 97.6826 130.536 94.8126 131.456C85.2826 134.536 75.4826 134.646 65.6726 133.716C61.7226 133.346 57.7626 132.406 54.2026 130.466C52.2126 129.386 50.6626 127.946 52.7526 124.726C53.7926 127.416 54.9526 129.416 57.3626 130.146C64.9426 132.446 72.6726 133.096 80.5226 132.096C81.6026 131.956 82.7826 131.526 82.7926 130.186C82.7926 128.576 81.5226 128.056 80.1926 127.986C79.1226 127.926 78.0326 128.126 76.9526 128.286C71.4526 129.126 66.0826 127.946 60.7226 127.096C58.8426 126.796 56.7826 126.136 56.4026 123.596C55.4426 117.086 54.7826 110.606 57.3726 104.266C57.9826 102.756 58.5026 101.196 58.8726 99.6056C59.1126 98.5456 59.0526 97.3056 57.6026 97.0556C56.5526 96.8756 55.9126 97.6956 55.6026 98.5456C53.6726 103.836 51.4526 109.076 51.8626 114.876C52.0726 117.866 51.6626 120.356 49.5526 122.886C46.4026 126.666 47.2926 130.176 51.3326 133.106C53.4226 134.626 55.8226 135.566 58.2726 136.196C70.4926 139.376 82.7126 139.376 94.8326 135.646C97.4226 134.846 99.9926 133.796 102.313 132.416C106.823 129.746 107.243 125.446 103.623 121.606C103.153 121.106 102.313 120.836 102.623 119.656C104.343 118.376 106.743 117.746 108.343 115.966C110.983 113.006 112.863 109.776 111.513 105.596C110.293 101.796 107.653 99.2456 103.793 98.7156L103.773 98.7256ZM106.763 111.516C105.673 112.926 104.593 114.736 102.553 114.316C100.803 113.956 101.343 111.946 100.943 110.656C100.583 109.466 100.433 108.196 100.273 106.956C100.123 105.766 99.3326 104.376 100.623 103.456C102.083 102.416 103.733 102.786 105.223 103.506C107.033 104.386 107.663 106.026 107.703 107.946C107.743 109.226 107.563 110.466 106.753 111.516H106.763Z" fill="black"/>
<path d="M139.573 25.0456C138.723 23.4356 139.023 21.9156 139.573 20.3256C140.053 18.9656 140.843 17.5456 140.413 16.1156C138.993 11.4456 137.923 6.59559 135.153 2.46559C133.343 -0.244414 131.113 -0.574414 128.023 0.765586C126.163 1.56559 125.223 3.62559 122.883 4.21559C121.643 2.65559 120.563 0.725586 118.143 0.345586C113.263 -0.434414 104.143 4.50559 102.223 9.11559C101.043 11.9356 102.013 13.9956 104.973 15.0556C106.943 15.7556 108.883 15.5756 110.853 15.0256C113.883 14.1656 116.623 12.7156 118.873 10.5856C120.593 8.95559 121.743 9.01559 123.303 10.7356C128.083 15.9756 132.363 21.5956 136.473 27.3556C137.743 29.1356 137.463 30.4656 136.203 32.2056C132.633 37.1256 127.793 39.4656 121.883 39.9856C117.433 40.3856 115.553 39.4156 113.663 35.3756C112.043 31.9256 110.783 28.3256 109.893 24.6056C109.523 23.0356 108.923 21.5056 108.283 20.0156C107.993 19.3356 107.223 18.9256 106.493 19.3556C106.103 19.5856 105.673 20.2456 105.723 20.6556C105.953 22.6256 106.203 24.6156 106.703 26.5256C107.323 28.8956 106.483 30.3856 104.383 31.3456C103.393 31.7956 102.413 32.2956 101.383 32.5856C92.6426 35.0256 83.9626 35.9356 75.3226 32.0356C72.3026 30.6756 71.5526 31.1956 70.7426 34.3656C70.5226 35.2356 70.2726 36.1756 70.3826 37.0356C70.6226 38.8356 71.7426 39.8956 73.2426 38.3356C74.9626 36.5456 76.7526 36.7356 78.7126 37.2856C87.6326 39.7756 96.2926 38.8456 104.843 35.5456C108.723 34.0456 109.073 34.0856 110.603 37.8656C112.113 41.5956 114.993 43.2156 118.483 43.6956C125.983 44.7156 132.663 42.6356 137.433 36.5856C139.993 33.3356 141.883 29.4356 139.563 25.0656L139.573 25.0456ZM116.783 6.78559C114.393 9.48559 111.283 10.7956 107.683 11.4956C107.323 11.2856 106.773 11.1156 106.503 10.7456C106.153 10.2756 106.393 9.67559 106.793 9.27559C109.303 6.79559 112.223 5.10559 115.803 4.77559C116.253 4.73559 116.913 4.99559 117.183 5.34559C117.553 5.81559 117.143 6.37559 116.783 6.78559ZM135.683 18.3456C134.913 18.7356 134.303 18.2356 133.843 17.6856C131.673 15.0656 129.453 12.4756 127.413 9.75559C126.183 8.11559 127.043 6.69559 128.503 5.63559C129.993 4.54559 131.623 4.35559 132.763 5.99559C134.943 9.14559 135.913 12.7856 136.533 16.1756C136.533 17.2656 136.393 17.9956 135.683 18.3556V18.3456Z" fill="black"/>
<path d="M46.0626 77.6756C47.1726 78.2356 48.4426 78.5356 49.6626 78.8356C50.3526 79.0056 51.1026 78.9556 51.8326 78.9956C52.9526 79.0556 54.1326 79.2056 54.5126 80.4156C54.9226 81.7256 53.9026 82.3456 52.8826 82.8356C52.5526 82.9956 52.2126 83.1256 51.9126 83.3256C47.3026 86.4356 47.4226 90.0456 52.2826 92.8356C53.3726 93.4556 54.5926 93.9256 55.8126 94.2256C68.0026 97.2756 80.2126 97.2956 92.4126 94.2656C94.1926 93.8256 95.8526 93.1056 97.3326 92.0256C100.653 89.5956 100.723 86.6056 97.5026 83.9756C95.7726 82.5656 93.7826 81.8056 91.5126 81.9356C91.6126 83.5756 92.0126 84.9656 93.2826 86.2656C95.1826 88.2156 94.9226 88.9556 92.4926 89.9456C91.4926 90.3456 90.4126 90.5756 89.3526 90.8256C81.8726 92.5856 74.2626 92.9856 66.6526 92.2456C62.7326 91.8656 58.6826 91.4856 55.0326 89.6456C54.2326 89.2356 53.2926 88.8656 53.4126 87.7556C53.5226 86.6856 54.5126 86.4156 55.3426 86.0756C57.3726 85.2356 58.8126 86.5356 60.3126 87.5056C64.0026 89.8856 68.1326 90.1956 72.3426 90.0356C73.4326 89.9956 74.5526 89.5156 74.6326 88.1656C74.7126 86.7856 73.6826 86.3256 72.5426 86.1756C71.4626 86.0356 70.3726 85.9756 69.2926 85.9456C62.8226 85.7656 59.0526 82.4156 57.1326 76.2956C55.6626 71.6056 54.6426 66.8456 53.6126 62.0656C52.8726 58.6356 52.4326 58.5756 49.5326 60.4256C48.3226 61.1956 46.8926 61.6156 45.7026 62.4156C42.6426 64.4756 40.9726 67.4556 41.0326 71.1156C41.0826 74.3856 43.3826 76.3056 46.0726 77.6656L46.0626 77.6756ZM45.5426 69.0956C46.1826 67.5256 47.3426 66.4256 49.1126 66.2556C49.9026 66.1756 50.4926 66.6556 50.7426 67.3856C51.2726 68.8956 51.7226 70.4356 52.0026 71.3056C52.2026 72.7456 52.1026 73.5156 51.3526 73.8156C49.6626 74.4856 48.1926 73.7256 46.8426 72.8156C45.5526 71.9356 44.9026 70.6556 45.5326 69.1056L45.5426 69.0956Z" fill="black"/>
<path d="M91.5126 81.8956L91.4726 81.9356C93.0726 75.6056 94.7426 69.2956 96.2426 62.9456C97.6726 56.8756 96.2626 55.3956 90.3926 56.8956C87.8826 57.5356 85.3826 57.6556 82.8526 57.7756C81.6326 57.8256 80.1226 58.0756 79.6526 56.4656C79.3526 55.4256 79.5226 54.2256 80.3226 53.3956C81.2826 52.3956 82.5326 51.9256 83.7026 52.9856C85.9326 55.0056 86.7726 53.7356 87.4326 51.6156C87.6626 50.8656 88.2026 50.4256 89.2726 50.6556C89.9026 51.5356 90.4926 52.6956 91.3926 53.5056C92.5226 54.5156 93.5026 53.8456 93.7626 52.5756C94.7826 47.4356 92.1526 43.3456 87.0326 41.9956C82.3626 40.7656 77.6026 41.2356 72.9526 41.8056C68.8326 42.3056 64.5826 42.1856 60.5926 43.5856C59.3126 44.0356 58.2326 44.7756 58.7626 46.3856C59.1626 47.5856 60.1826 47.9556 61.3826 47.7756C62.8826 47.5556 64.4426 46.6456 66.1026 48.4056C63.9226 49.7156 61.6926 48.6856 59.6926 49.1656C56.3826 49.9656 59.1326 53.5156 57.3126 54.9456C55.6126 54.5756 55.6926 53.4256 55.7526 52.3556C55.8226 51.2756 56.1026 50.2056 56.1026 49.1256C56.1026 48.4056 55.6826 47.6456 54.8726 47.5456C54.4126 47.4856 53.7526 47.7156 53.4426 48.0456C50.7326 50.9956 51.2926 56.2756 54.7126 58.4556C58.7726 61.0456 63.3126 62.3256 68.1426 62.2656C75.0226 62.1856 81.9226 62.7656 88.7826 61.4456C92.0826 60.8056 92.7926 61.6056 92.1126 64.8856C90.8926 70.7556 89.2326 76.5056 86.8826 82.0356C86.4526 83.0356 85.9426 84.0056 85.6126 85.0356C85.2626 86.1356 85.3226 87.2856 86.6026 87.7556C87.6226 88.1256 88.2626 87.3956 88.7526 86.5756C89.6626 85.0356 90.5826 83.4956 91.4926 81.9656C91.4926 81.9656 91.5126 81.9656 91.5226 81.9656C91.5226 81.9556 91.5226 81.9356 91.5226 81.9256L91.5126 81.8956ZM71.8926 48.7256C71.1626 48.5756 70.5926 47.8856 70.9326 47.0956C71.0826 46.7356 71.9926 46.2856 72.2226 46.4256C75.0926 48.1856 77.7226 46.6756 80.4426 46.0156C81.2726 45.8156 82.2626 45.7056 83.5326 47.0556C79.3826 48.4956 75.7726 49.5356 71.8926 48.7356V48.7256Z" fill="black"/>
<path d="M14.2726 119.146C8.03259 116.096 0.322594 120.706 0.0125937 127.696C-0.147406 131.226 1.22259 133.526 3.81259 134.046C7.17259 134.726 10.5226 133.026 11.8826 129.946C13.4626 131.296 15.0426 132.196 15.7826 129.236C16.4026 126.756 16.3926 124.206 16.0926 121.666C15.9626 120.536 15.3526 119.666 14.2726 119.136V119.146ZM11.8626 129.866C10.2726 129.766 8.69259 129.666 7.10259 129.556C5.69259 129.456 4.74259 128.786 4.53259 127.316C4.31259 125.806 4.55259 124.456 6.06259 123.656C7.35259 122.976 8.73259 122.656 10.2026 122.746C11.7226 122.836 12.5426 123.646 12.4526 125.146C12.3526 126.726 12.0726 128.296 11.8626 129.876V129.866Z" fill="black"/>
<path d="M27.4726 129.156C20.2926 126.576 16.9026 128.766 16.7026 136.186C16.7026 137.446 16.5626 138.736 16.7326 139.976C16.9826 141.726 17.9626 143.026 19.8726 143.216C22.4326 143.466 24.9526 143.236 27.3526 142.226C28.2426 141.856 28.8926 141.176 28.7526 140.156C28.6026 139.106 27.8026 138.636 26.8026 138.696C25.7226 138.756 24.6426 138.956 23.5726 139.086C22.3726 139.236 21.3526 138.906 20.9826 137.676C20.5626 136.266 20.4126 134.756 21.3726 133.506C22.3626 132.226 23.6526 132.846 24.8526 133.256C25.7526 133.566 26.3826 134.166 26.7926 135.026C27.2526 135.996 27.7226 137.286 29.0326 136.896C30.4826 136.466 30.4526 134.956 30.5126 133.686C30.6126 131.436 29.7226 129.966 27.4726 129.156Z" fill="black"/>
<path d="M14.9426 115.986C15.5326 115.596 16.2126 115.216 16.8826 115.116C18.4926 114.876 20.3026 114.646 21.0826 116.566C21.7026 118.106 21.7326 119.786 20.4226 121.096C19.9226 121.596 19.1426 121.796 18.6426 122.286C17.3626 123.556 17.7426 125.056 19.3926 125.516C21.7626 126.186 24.2726 124.856 24.8626 122.466C25.1626 121.256 25.1226 119.966 25.2126 119.016C25.0126 116.446 25.9126 113.776 23.2426 112.416C20.2926 110.916 17.0026 110.646 13.7626 110.576C12.0126 110.546 11.0226 112.726 11.6626 114.756C12.2026 116.456 13.2426 117.086 14.9326 115.986H14.9426Z" fill="black"/>
<path d="M45.2226 117.776C41.4726 116.396 37.2726 119.016 36.8526 122.966C36.6726 124.266 36.6926 125.626 37.8526 126.416C39.3826 127.456 39.9926 126.496 40.4526 125.026C40.8026 123.926 40.8526 124.986 41.0826 125.216C43.4926 127.626 43.5126 127.626 44.6226 124.586C45.1726 123.066 45.7326 121.546 46.1726 119.986C46.4326 119.076 46.2726 118.146 45.2226 117.756V117.776Z" fill="black"/>
<path d="M122.743 19.5056C124.373 19.3556 125.193 18.1656 125.273 16.5456C125.083 14.8856 124.243 13.7456 122.563 13.7056C120.863 13.6656 119.833 14.7056 119.873 16.4056C119.913 18.1756 120.653 19.6956 122.743 19.5056Z" fill="black"/>
<path d="M82.5926 72.6656C84.1026 72.5756 86.1526 72.8856 86.5126 70.8356C86.8626 68.8156 85.0526 68.8256 83.6126 68.6956C82.1526 68.9256 80.1426 68.5156 79.9726 70.7256C79.8626 72.2756 81.2826 72.7356 82.5926 72.6656Z" fill="black"/>
<path d="M102.463 68.6656C103.363 69.1856 104.193 68.7756 104.843 68.0656C107.213 65.4956 108.803 54.1356 107.233 50.8256C107.013 50.3656 106.583 49.9956 106.343 49.6956C105.403 49.3156 104.763 49.5956 104.373 50.2756C104.113 50.7256 103.903 51.3056 103.943 51.7956C104.313 56.9156 103.563 61.8656 101.963 66.7156C101.733 67.3956 101.743 68.2456 102.463 68.6556V68.6656Z" fill="black"/>
<path d="M110.723 50.7456C110.263 50.8956 109.563 51.3556 109.563 51.6856C109.533 54.6956 109.623 57.7056 109.733 60.7056C109.733 60.9456 110.193 61.1756 110.453 61.4256C111.453 61.6456 112.283 61.2556 112.683 60.3856C114.013 57.4456 113.873 54.4856 112.493 51.6056C112.173 50.9256 111.513 50.4856 110.733 50.7456H110.723Z" fill="black"/>
</svg>
